# xmcd
#
# Track frame offsets:
#	150
#	14972
#	26885
#	38982
#	50775
#	66622
#	78390
#	90157
#	104830
#	116627
#	127982
#	140165
#	151960
#	165922
#	179067
#	190822
#	204492
#	220470
#	232610
#	245662
#	260060
#	274150
#	290477
#	307740
#	326305
#
# Disc length: 4529 seconds
#
# Revision: 2
# Processed by: cddbd v1.5.2PL0 Copyright (c) Steve Scherf et al.
# Submitted via: EasyCDDAExtractor 12.0.1.1
#
DISCID=7b11af19
DTITLE=Various Artist - 25 Top Rumbas
DYEAR=1900
DGENRE=Latin
TTITLE0=CFD - RB 27 - Some People
TTITLE1=Ross Mitchell - RB 27 - The Breeze And I
TTITLE2=Tony Crane - RB 27 - Come Prima (more than ever)
TTITLE3=Dance And Listen Orchestra - RB 27 - Can You Feel The Love Tonight
TTITLE4=CFD - RB 27 - On My Own
TTITLE5=Ross Mitchell - RB 27 - Sacrifice
TTITLE6=Ross Mitchell - RB 27 - Move Closer
TTITLE7=CFD - RB 27 - How Deep Is Your Love
TTITLE8=Dance And Listen Orchestra - RB 27 - Welcome To Jurassic Park
TTITLE9=Peter Walton - RB 28 - Beautiful Love
TTITLE10=Tony Crane - RB 27 - Love Is All Around
TTITLE11=Lynn Garner - RB 27 - Somos Novios
TTITLE12=Ross Mitchell - RB 27 - Lynn Garner - Wind Beneath My Wings
TTITLE13=CFD - RB 27 - On And On
TTITLE14=Ross Mitchell - RB 27 - A Little Bit More
TTITLE15=Tony Crane - RB 27 - I Believe I Can Fly
TTITLE16=CFD - RB 27 - Islands In The Stream
TTITLE17=Ross Mitchell - RB 26 - Get Here
TTITLE18=Ross Mitchell - RB 25 - Colours Of The Wind
TTITLE19=CFD - RB 25 - Take My Breath Away
TTITLE20=Ross Mitchell - RB 25 - Love Is You
TTITLE21=CFD - RB 25 - Quit Playing Games With My Heart
TTITLE22=Tony Crane - RB 25 - Sometimes When We Touch
TTITLE23=Studio Latin - RB 23 - Never, Never, Never
TTITLE24=Studio Latin - RB 23 - Como Tue Quieres
EXTD=
EXTT0=
EXTT1=
EXTT2=
EXTT3=
EXTT4=
EXTT5=
EXTT6=
EXTT7=
EXTT8=
EXTT9=
EXTT10=
EXTT11=
EXTT12=
EXTT13=
EXTT14=
EXTT15=
EXTT16=
EXTT17=
EXTT18=
EXTT19=
EXTT20=
EXTT21=
EXTT22=
EXTT23=
EXTT24=
PLAYORDER=
